# xmcd CD database file
#
# Track frame offsets:
#	150
#	25167
#	41824
#	61310
#	82907
#	104188
#	132066
#	154830
#	189068
#	217642
#	237148
#
# Disc length: 3490 seconds
#
# Revision: 0
# Processed by: cddbd v1.5.1PL0 Copyright (c) Steve Scherf et al.
# Submitted via: CDex 1.51
#
DISCID=840da00b
DTITLE=Aladar Pege - Pege Quartett and guests
DYEAR=1995
DGENRE=Jazz
TTITLE0=Marlboro
TTITLE1=Evening walk
TTITLE2=Coctail
TTITLE3=Ostinato
TTITLE4=Romantic song
TTITLE5=Windsurf
TTITLE6=Square wheel
TTITLE7=On the way
TTITLE8=Before the rain
TTITLE9=Eastern egg
TTITLE10=Moving elevator
EXTD=YEAR: 1995
EXTT0=
EXTT1=
EXTT2=
EXTT3=
EXTT4=
EXTT5=
EXTT6=
EXTT7=
EXTT8=
EXTT9=
EXTT10=
PLAYORDER=
